<?xml version="1.0" encoding="UTF-8" standalone="no"?>
<!DOCTYPE svg PUBLIC "-//W3C//DTD SVG 1.1//EN" "http://www.w3.org/Graphics/SVG/1.1/DTD/svg11.dtd">
<svg width="100%" height="100%" viewBox="0 0 1210 240" version="1.1" xmlns="http://www.w3.org/2000/svg" xmlns:xlink="http://www.w3.org/1999/xlink" xml:space="preserve" xmlns:serif="http://www.serif.com/" style="fill-rule:evenodd;clip-rule:evenodd;stroke-linejoin:round;stroke-miterlimit:2;">
    <g transform="matrix(1,0,0,1,0,-1504.27)">
        <g id="_465miles_logo_text" serif:id="465miles_logo_text" transform="matrix(1.2092,0,0,0.2394,0,1504.27)">
            <rect x="0" y="0" width="1000" height="1000" style="fill:none;"/>
            <clipPath id="_clip1">
                <rect x="0" y="0" width="1000" height="1000"/>
            </clipPath>
            <g clip-path="url(#_clip1)">
                <g transform="matrix(1.03469,0,0,1.11531,-1.01363e-13,0)">
                    <g transform="matrix(0.517896,0,0,2.42677,-75.9011,-724.96)">
                        <g transform="matrix(518.166,0,0,518.166,125.83,661.45)">
                            <path d="M0.343,-0L0.343,-0.205L0.04,-0.205L0.04,-0.26L0.329,-0.7L0.397,-0.7L0.397,-0.259L0.476,-0.259L0.476,-0.205L0.397,-0.205L0.397,-0L0.343,-0ZM0.105,-0.26L0.343,-0.259L0.342,-0.621L0.105,-0.26Z" style="fill-rule:nonzero;"/>
                        </g>
                        <g transform="matrix(518.166,0,0,518.166,403.308,661.45)">
                            <path d="M0.265,0.013C0.221,0.013 0.181,0.002 0.145,-0.02C0.108,-0.041 0.079,-0.07 0.058,-0.107C0.036,-0.143 0.025,-0.184 0.025,-0.228C0.025,-0.254 0.028,-0.276 0.034,-0.294C0.04,-0.311 0.049,-0.331 0.061,-0.354L0.26,-0.7L0.323,-0.7L0.174,-0.441C0.204,-0.455 0.234,-0.462 0.265,-0.463C0.296,-0.463 0.326,-0.458 0.355,-0.447C0.384,-0.435 0.409,-0.419 0.432,-0.398C0.454,-0.377 0.472,-0.352 0.485,-0.323C0.498,-0.294 0.505,-0.262 0.505,-0.228C0.505,-0.195 0.499,-0.163 0.486,-0.134C0.474,-0.105 0.456,-0.08 0.435,-0.058C0.413,-0.036 0.387,-0.018 0.358,-0.006C0.329,0.007 0.298,0.013 0.265,0.013ZM0.265,-0.041C0.301,-0.041 0.333,-0.05 0.361,-0.067C0.389,-0.085 0.411,-0.108 0.427,-0.136C0.443,-0.165 0.451,-0.195 0.451,-0.228C0.451,-0.262 0.443,-0.293 0.426,-0.321C0.409,-0.349 0.387,-0.371 0.359,-0.388C0.331,-0.405 0.3,-0.413 0.266,-0.413C0.23,-0.413 0.198,-0.404 0.17,-0.387C0.142,-0.37 0.12,-0.347 0.104,-0.32C0.087,-0.292 0.079,-0.261 0.079,-0.228C0.079,-0.193 0.088,-0.161 0.105,-0.133C0.122,-0.105 0.145,-0.082 0.173,-0.066C0.201,-0.049 0.232,-0.041 0.265,-0.041Z" style="fill-rule:nonzero;"/>
                        </g>
                        <g transform="matrix(518.166,0,0,518.166,680.526,661.45)">
                            <path d="M0.261,0.013C0.219,0.013 0.181,0.003 0.147,-0.018C0.113,-0.038 0.085,-0.065 0.065,-0.1C0.045,-0.134 0.035,-0.172 0.035,-0.213L0.089,-0.213C0.089,-0.181 0.097,-0.153 0.112,-0.127C0.128,-0.1 0.149,-0.08 0.175,-0.064C0.201,-0.049 0.229,-0.041 0.261,-0.041C0.292,-0.041 0.321,-0.049 0.347,-0.064C0.373,-0.08 0.394,-0.1 0.41,-0.127C0.425,-0.153 0.433,-0.181 0.433,-0.213C0.433,-0.244 0.425,-0.273 0.41,-0.299C0.395,-0.325 0.374,-0.346 0.348,-0.362C0.321,-0.377 0.29,-0.385 0.255,-0.385L0.088,-0.385L0.152,-0.7L0.474,-0.7L0.474,-0.646L0.195,-0.646L0.155,-0.439L0.246,-0.439C0.293,-0.439 0.335,-0.429 0.371,-0.41C0.407,-0.391 0.436,-0.364 0.456,-0.33C0.477,-0.296 0.487,-0.257 0.487,-0.213C0.487,-0.182 0.481,-0.153 0.47,-0.126C0.458,-0.098 0.442,-0.074 0.421,-0.053C0.4,-0.032 0.376,-0.016 0.349,-0.005C0.322,0.007 0.292,0.013 0.261,0.013Z" style="fill-rule:nonzero;"/>
                        </g>
                    </g>
                    <g transform="matrix(0.517896,0,0,2.42677,364.023,-773.056)">
                        <g transform="matrix(435.804,0,0,435.804,125.83,661.45)">
                            <path d="M0.06,-0L0.06,-0.5L0.21,-0.5L0.21,-0.469C0.227,-0.483 0.246,-0.494 0.267,-0.502C0.288,-0.51 0.311,-0.514 0.335,-0.514C0.368,-0.514 0.399,-0.506 0.427,-0.491C0.455,-0.476 0.477,-0.456 0.495,-0.431C0.512,-0.456 0.535,-0.476 0.563,-0.491C0.591,-0.506 0.621,-0.514 0.654,-0.514C0.69,-0.514 0.723,-0.505 0.752,-0.488C0.781,-0.47 0.805,-0.447 0.822,-0.418C0.84,-0.388 0.849,-0.356 0.849,-0.32L0.849,-0L0.699,-0L0.699,-0.278C0.699,-0.293 0.695,-0.307 0.687,-0.32C0.679,-0.333 0.669,-0.343 0.657,-0.351C0.644,-0.358 0.63,-0.362 0.614,-0.362C0.598,-0.362 0.584,-0.358 0.571,-0.351C0.558,-0.343 0.548,-0.333 0.541,-0.32C0.533,-0.307 0.529,-0.293 0.529,-0.278L0.529,-0L0.379,-0L0.379,-0.278C0.379,-0.293 0.375,-0.307 0.368,-0.32C0.36,-0.333 0.35,-0.343 0.337,-0.351C0.324,-0.358 0.31,-0.362 0.295,-0.362C0.279,-0.362 0.265,-0.358 0.252,-0.351C0.239,-0.343 0.229,-0.333 0.222,-0.32C0.214,-0.307 0.21,-0.293 0.21,-0.278L0.21,-0L0.06,-0Z" style="fill-rule:nonzero;"/>
                        </g>
                        <g transform="matrix(435.804,0,0,435.804,513.042,661.45)">
                            <path d="M0.06,-0.5L0.21,-0.5L0.21,-0L0.06,-0L0.06,-0.5ZM0.136,-0.552C0.114,-0.552 0.096,-0.559 0.082,-0.574C0.067,-0.588 0.06,-0.606 0.06,-0.627C0.06,-0.648 0.067,-0.666 0.082,-0.68C0.096,-0.695 0.114,-0.702 0.136,-0.702C0.157,-0.702 0.174,-0.695 0.189,-0.68C0.203,-0.666 0.211,-0.648 0.211,-0.627C0.211,-0.606 0.203,-0.588 0.189,-0.574C0.175,-0.559 0.157,-0.552 0.136,-0.552Z" style="fill-rule:nonzero;"/>
                        </g>
                        <g transform="matrix(435.804,0,0,435.804,630.709,661.45)">
                            <rect x="0.06" y="-0.75" width="0.15" height="0.75" style="fill-rule:nonzero;"/>
                        </g>
                        <g transform="matrix(435.804,0,0,435.804,744.018,661.45)">
                            <path d="M0.28,0.013C0.234,0.013 0.192,0.001 0.154,-0.023C0.116,-0.046 0.086,-0.078 0.064,-0.118C0.041,-0.158 0.03,-0.202 0.03,-0.251C0.03,-0.287 0.037,-0.321 0.05,-0.353C0.063,-0.385 0.08,-0.413 0.103,-0.437C0.126,-0.461 0.153,-0.48 0.183,-0.494C0.213,-0.507 0.246,-0.514 0.28,-0.514C0.32,-0.514 0.357,-0.505 0.39,-0.488C0.423,-0.47 0.451,-0.447 0.474,-0.417C0.497,-0.387 0.513,-0.353 0.523,-0.316C0.532,-0.279 0.533,-0.24 0.526,-0.201L0.192,-0.201C0.197,-0.189 0.203,-0.178 0.211,-0.169C0.219,-0.159 0.228,-0.152 0.24,-0.146C0.251,-0.14 0.265,-0.137 0.28,-0.137C0.295,-0.137 0.308,-0.14 0.321,-0.147C0.333,-0.153 0.344,-0.162 0.354,-0.174L0.507,-0.138C0.486,-0.094 0.456,-0.057 0.416,-0.029C0.375,-0.001 0.33,0.013 0.28,0.013ZM0.187,-0.311L0.374,-0.311C0.369,-0.325 0.362,-0.338 0.353,-0.349C0.344,-0.36 0.333,-0.368 0.32,-0.375C0.308,-0.381 0.294,-0.384 0.28,-0.384C0.266,-0.384 0.253,-0.381 0.24,-0.375C0.228,-0.368 0.217,-0.36 0.208,-0.349C0.199,-0.338 0.192,-0.325 0.187,-0.311Z" style="fill-rule:nonzero;"/>
                        </g>
                        <g transform="matrix(435.804,0,0,435.804,983.711,661.45)">
                            <path d="M0.204,0.009C0.179,0.007 0.154,0.001 0.131,-0.008C0.108,-0.016 0.087,-0.028 0.069,-0.043C0.05,-0.058 0.036,-0.076 0.025,-0.098L0.151,-0.152C0.154,-0.148 0.159,-0.144 0.165,-0.138C0.171,-0.133 0.179,-0.128 0.188,-0.124C0.197,-0.119 0.208,-0.117 0.221,-0.117C0.23,-0.117 0.238,-0.118 0.246,-0.12C0.254,-0.122 0.261,-0.125 0.266,-0.13C0.271,-0.134 0.274,-0.141 0.274,-0.149C0.274,-0.158 0.271,-0.165 0.264,-0.17C0.257,-0.175 0.249,-0.179 0.239,-0.181C0.229,-0.183 0.22,-0.185 0.212,-0.186C0.182,-0.191 0.154,-0.2 0.127,-0.214C0.1,-0.228 0.077,-0.247 0.06,-0.27C0.043,-0.293 0.034,-0.319 0.034,-0.35C0.034,-0.384 0.043,-0.414 0.061,-0.439C0.078,-0.464 0.101,-0.483 0.13,-0.497C0.158,-0.51 0.189,-0.517 0.222,-0.517C0.261,-0.517 0.297,-0.509 0.33,-0.493C0.363,-0.477 0.391,-0.454 0.412,-0.424L0.294,-0.354C0.29,-0.359 0.285,-0.364 0.279,-0.369C0.273,-0.374 0.267,-0.379 0.259,-0.383C0.252,-0.387 0.244,-0.389 0.235,-0.39C0.223,-0.391 0.213,-0.391 0.204,-0.389C0.195,-0.387 0.187,-0.383 0.182,-0.378C0.177,-0.372 0.174,-0.364 0.174,-0.354C0.174,-0.344 0.179,-0.337 0.188,-0.333C0.197,-0.329 0.208,-0.326 0.22,-0.324C0.231,-0.322 0.241,-0.319 0.248,-0.317C0.277,-0.308 0.304,-0.296 0.329,-0.281C0.354,-0.266 0.375,-0.247 0.39,-0.226C0.406,-0.205 0.413,-0.18 0.412,-0.151C0.412,-0.118 0.402,-0.088 0.382,-0.063C0.362,-0.038 0.336,-0.019 0.305,-0.006C0.273,0.008 0.239,0.012 0.204,0.009Z" style="fill-rule:nonzero;"/>
                        </g>
                    </g>
                </g>
            </g>
        </g>
    </g>
</svg>
